# xmcd
#
# Track frame offsets: 
#        150
#        13048
#        38131
#        57644
#        71881
#        92619
#        106415
#        127693
#        149730
#        162914
#        179497
#        195599
#        215010
#        236567
#        257371
#        272259
#        293192
#        307248
#        325410
#        342163
#
# Disc length: 4788 seconds
#
# Revision: 1
# Processed by: cddbd v1.5.2PL0 Copyright (c) Steve Scherf et al.
# Submitted via: ExactAudioCopy v1.3
#
DISCID=3212b214
DTITLE=Various Artist - Akella Presents - Country Blues - vol.31  CD1
DTITLE=New!
DYEAR=2013
DGENRE=Country
TTITLE0=The NOTTING HILLBILLIES - That's Where I Belong
TTITLE1=TONY JOE WHITE - Conjure Woman
TTITLE2=GEORGE THOROGOOD - I Wash My Hands In Muddy Water
TTITLE3=JOHN FOGERTY - My Toot Toot
TTITLE4=HANS THEESSINK - Train
TTITLE5=DUKE ROBILLARD - Down Along The Cove
TTITLE6=GREAT AMERICAN TAXI - Olden Days
TTITLE7=BIG HOUSE - Tender Dreams
TTITLE8=J.J.CALE - Louisiana Women
TTITLE9=COLIN JAMES - When I Write The Book
TTITLE10=TOM PRINCIPATO - Jambalay (On The Bayou)
TTITLE11=The STEEPWATER BAND - One Way Ride
TTITLE12=GREGG ALLMAN - Floating Bridge
TTITLE13=MICHAEL POWERS - Prodigal Son
TTITLE14=VARGAS BLUES BAND - Deep Blue
TTITLE15=MARK KNOPFLER and EMMYLOU HARRIS - This Is Us
TTITLE16=BO RAMSEY - And I Wonder
TTITLE17=EG KIGHT - I'll Believe It When I Feel It
TTITLE18=DANNY SHIRLEY - Honky Tonk Hero's
TTITLE19=PAT McMANUS - Just Got Back Today
EXTD=
EXTT0=
EXTT1=
EXTT2=
EXTT3=
EXTT4=
EXTT5=
EXTT6=
EXTT7=
EXTT8=
EXTT9=
EXTT10=
EXTT11=
EXTT12=
EXTT13=
EXTT14=
EXTT15=
EXTT16=
EXTT17=
EXTT18=
EXTT19=
PLAYORDER=
